<?xml version="1.0" encoding="utf-8"?>
<!-- Generator: Adobe Illustrator 21.0.0, SVG Export Plug-In . SVG Version: 6.00 Build 0)  -->
<svg version="1.1" id="Layer_1" xmlns="http://www.w3.org/2000/svg" xmlns:xlink="http://www.w3.org/1999/xlink" x="0px" y="0px"
	 viewBox="0 0 2000 2000" style="enable-background:new 0 0 2000 2000;" xml:space="preserve">
<style type="text/css">
	.st0{fill:#FBB03B;}
	.st1{fill:#FFFFFF;}
	.st2{fill:#1A1A1A;}
</style>
<path class="st0" d="M800.2,876.5c-4.4-3.5-8.7-7.2-12.8-11.2v35.2c4.3,1.4,8.5,2.6,12.8,3.7c0,0,0,0,0.1,0L800.2,876.5
	C800.2,876.5,800.2,876.5,800.2,876.5z M1063.8,673.1c-0.2,0.2-0.4,0.3-0.6,0.5c-0.4,0.3-0.8,0.6-1.3,1l-0.1,0.1
	c-4.5,3.6-8.8,7.4-12.9,11.3h116.3v37.6c0.7,0.9,1.4,1.7,2.1,2.6c3.8,4.8,7.3,9.8,10.7,14.9c0,0,0,0,0,0.1v-68H1063.8z
	 M800.2,1050.9v-38.4c0,0,0,0-0.1-0.1c-0.5-0.6-1-1.2-1.5-1.8c-4-5-7.8-10.1-11.3-15.5v68.6h113.7c0.5-0.4,0.9-0.7,1.2-1l0.2-0.2
	c4.7-3.8,9.2-7.6,13.5-11.7H800.2z M1178.1,835.7c-4.3-1.4-8.5-2.6-12.8-3.6v27.7c4.4,3.4,8.7,7.1,12.8,11l0,0.1L1178.1,835.7
	C1178.1,835.7,1178.1,835.7,1178.1,835.7z M1178.1,953v22.8c0,0,0-0.1,0-0.1v-22.8C1178.1,952.9,1178.1,953,1178.1,953z
	 M1178.1,995.2c-4,6.1-8.2,12-12.8,17.7v38h-90.8c-1.7,4.6-3.8,8.9-6.1,12.9h109.8L1178.1,995.2
	C1178.1,995.1,1178.1,995.1,1178.1,995.2z M787.4,673.1v68c3.2-4.8,6.7-9.7,10.5-14.7c0.8-1,1.5-2,2.3-3c0,0,0,0,0.1-0.1v-37.5h90.5
	c1.7-4.7,3.7-8.9,6.1-12.8H787.4z"/>
<path class="st0" d="M787.3,673.1v68.1c0,0,0-0.1,0.1-0.1c3.2-4.8,6.7-9.7,10.5-14.7c0.8-1,1.5-2,2.3-3v-37.6h90.6
	c1.7-4.7,3.7-8.9,6.1-12.8H787.3z M1165.3,1012.9C1165.2,1012.9,1165.2,1013,1165.3,1012.9l-0.1,38h-90.7c-1.7,4.6-3.8,8.9-6.1,12.9
	h109.7v-68.6C1174.1,1001.3,1169.8,1007.2,1165.3,1012.9z M800.2,1050.9v-38.5c-0.5-0.6-1-1.2-1.5-1.8c-4-5-7.8-10.1-11.3-15.5
	c0,0,0-0.1-0.1-0.1v68.7h113.8c0.5-0.4,0.9-0.7,1.2-1l0.2-0.2c4.7-3.8,9.2-7.6,13.5-11.7H800.2z M1063.8,673.1
	c-0.2,0.2-0.4,0.3-0.6,0.5c-0.4,0.3-0.8,0.6-1.3,1l-0.1,0.1c-4.5,3.6-8.8,7.4-12.9,11.3h116.3V740c0,0,0,0.1,0.1,0.1v-16.7
	c0.7,0.9,1.4,1.7,2.1,2.6c3.8,4.8,7.3,9.8,10.7,14.9v-67.9H1063.8z M787.4,865.3L787.4,865.3l-0.1,35.2c0,0,0,0,0.1,0
	c4.3,1.4,8.5,2.6,12.8,3.7v-27.7C795.7,873,791.5,869.3,787.4,865.3z M787.3,952.4v23.2c0,0,0,0.1,0.1,0.1v-23.1
	C787.3,952.5,787.3,952.4,787.3,952.4z"/>
<g>
	<path d="M1165.2,977.7v18.5c0,0,0-0.1,0.1-0.1v-18.5C1165.2,977.6,1165.2,977.6,1165.2,977.7z M1178.1,953v22.8c0,0,0-0.1,0-0.1
		v-22.8C1178.1,952.9,1178.1,953,1178.1,953z"/>
	<path class="st1" d="M1165.2,977.7v18.5c0,0,0-0.1,0.1-0.1v-18.5C1165.2,977.6,1165.2,977.6,1165.2,977.7z M1178.1,953v22.8
		c0,0,0-0.1,0-0.1v-22.8C1178.1,952.9,1178.1,953,1178.1,953z"/>
</g>
<g>
	<path class="st2" d="M358.8,1136.4v102.9h-74.4v-15.5H256v17c0,7.5,2.6,13.9,7.9,19.1c5.2,5.2,11.6,7.9,19.1,7.9h77.4
		c7.4,0,13.8-2.7,19.1-7.9c5.3-5.3,7.9-11.6,7.9-19.1v-104.4H358.8z"/>
	<path class="st2" d="M527.5,1136.4H498l-26.6,31.9l-16.4,19.5h-25.7v-51.5h-28.5v131.4h28.5v-51.5h25.7l43.1,51.5h29.6v-9.9
		l-46.9-55.8l46.9-55.8V1136.4z"/>
	<path class="st2" d="M669.1,1175.7v-12.2c0-7.4-2.6-13.8-7.9-19.1c-5.3-5.3-11.6-7.9-19.1-7.9h-77.4c-7.4,0-13.8,2.6-19.1,7.8
		s-7.9,11.6-7.9,19.2v25.9c0,7.5,2.7,13.9,7.9,19.2s11.7,7.8,19.1,7.8h75.7v23H566v-10.8h-28.3v12.2c0,7.5,2.7,13.9,7.9,19.1
		c5.3,5.2,11.7,7.9,19.1,7.9h77.4c7.4,0,13.8-2.7,19.1-7.9c5.3-5.3,7.9-11.6,7.9-19.1v-25.9c0-7.4-2.6-13.8-7.9-19.1
		c-5.3-5.3-11.6-7.9-19.1-7.9H566v-23h74.4v10.8H669.1z"/>
	<path class="st2" d="M846.1,1136.4v51.5h-77.5v-51.5h-28.3v131.4h28.3v-51.5h77.5v51.5h28.3v-131.4H846.1z"/>
	<path class="st2" d="M1030.9,1136.4l-55.1,95.4l-55.1-95.4h-32.8l76.1,131.4h23.5l76.1-131.4H1030.9z"/>
	<path class="st2" d="M1194.8,1144.4c-5.3-5.3-11.7-7.9-19.3-7.9h-77.2c-7.5,0-13.9,2.6-19.2,7.8s-7.8,11.6-7.8,19.2v104.4h28.3
		v-42.3h74.4v42.3h28.7v-104.4C1202.8,1156,1200.1,1149.7,1194.8,1144.4z M1174.1,1197h-74.4v-32.1h74.4V1197z"/>
	<path class="st2" d="M1350.9,1164.9v-28.5h-104c-7.5,0-13.9,2.6-19.2,7.8s-7.8,11.6-7.8,19.2v77.4c0,7.5,2.6,13.9,7.8,19.1
		c5.2,5.2,11.6,7.9,19.2,7.9h104v-28.5h-102.7v-74.4H1350.9z"/>
	<path class="st2" d="M1421.5,1136.4v131.4h14.8v-131.4H1421.5z"/>
	<path class="st2" d="M1558.8,1168.5c-4.3-4.3-9.5-6.5-15.6-6.5h-85.8v105.8h15v-83.7c0-2,0.7-3.6,2.2-5c1.5-1.4,3.2-2.1,5.1-2.1
		h63.5c1.9,0,3.6,0.7,5,2.1c1.4,1.4,2.1,3.1,2.1,5v83.7h15v-83.7C1565.3,1178,1563.1,1172.8,1558.8,1168.5z"/>
	<path class="st2" d="M1598.7,1252.8c-1.9,0-3.6-0.7-5-2.1c-1.4-1.4-2.1-3.1-2.1-5v-61.7c0-2,0.7-3.6,2.1-5c1.4-1.4,3.1-2.1,5-2.1
		h85.4v-15h-85.4c-6.1,0-11.3,2.2-15.6,6.5c-4.3,4.3-6.5,9.5-6.5,15.6v61.7c0,6.1,2.2,11.3,6.5,15.6c4.3,4.3,9.5,6.5,15.6,6.5h85.8
		v-15H1598.7z"/>
	<path class="st2" d="M1700.3,1252.8v15h15v-15H1700.3z"/>
</g>
<path d="M1018.9,868.2c0,20-16.2,36.2-36.1,36.2c-20,0-36.2-16.2-36.2-36.1c0-20.1,16.1-36.2,36.2-36.3
	C1002.7,832,1018.9,848.2,1018.9,868.2z"/>
<g id="XMLID_1_">
	<g>
		<path class="st2" d="M1201.7,825.7v4c-1.9,2.3-4,2.4-6.7,1.3c-37.8-15-76.7-19.1-116.7-11.1c-5.2,1-10.3,2.4-15.6,3.6
			c1.6,3.5,3.1,6.5,4.4,9.7c0.7,1.7,1.4,2.3,3.4,2.2c9.2-0.4,18.3,0.3,27.2,2.5c29.7,7.4,55.6,21.9,77,43.7
			c19,19.3,23.6,42.5,15.2,68.1c-4.2,12.8-10.9,24.7-18,36.2c-12,19.2-26.5,36.1-43.6,50.9c-1.3,1.1-2.7,1.9-4.4,1.3
			c-1.9-0.7-2.5-2.2-2.7-4c-0.3-2-0.6-4-0.9-5.9c-5.9-34.2-19.1-65.3-40.7-92.5c-5.7-7.1-12-13.8-18.1-20.8c-2.8,4-5.3,7.5-7.7,10.9
			c1.8,3.2,3.6,6.1,5.2,9.2c7.5,14.4,11.4,29.7,12.7,45.8c1.8,20.5,1.1,40.9-4.8,60.7c-6,20.3-18.1,34.3-35.9,42.1
			c-4.5,2-9.4,3.5-14.6,4.7c-2.5,0.5-5,0.9-7.5,1.2c-4.5,0.6-9.1,0.9-13.7,1.5h2.3c-11,1-21.6,0.8-30.8,0h3.6
			c-12.2-1-24.4-2.5-36.2-5.4h0c-8.3-2-16.6-4.6-24.8-7.1c-3-0.9-4.2-3.6-2.7-5.8c0.5-0.8,1.4-1.5,2.2-2.1
			c28.6-22.7,50.3-50.7,63.8-84.8c3.4-8.4,5.9-17.2,9-26c-4.2-0.4-7.7-0.7-11.2-1.1c-1.5-0.2-2.4,0.2-3.1,1.6
			c-4.6,9-10.4,17.2-17.6,24.3c-21.1,21.1-46,35.9-74.9,43.2c-27.4,6.9-50.7-1.3-68.3-23.3c-18.6-23.2-31.2-49.5-38.9-78.2
			c-1.5-5.5-2.7-11.1-4-16.6v-2.7c2.5-2.8,3.3-3,6.7-1.7c37.3,14.8,75.6,19,115.1,11.5c5.8-1.1,11.5-2.6,17.3-4
			c-1.7-3.7-3.3-7-4.6-10.3c-0.6-1.4-1.2-1.7-2.6-1.6c-8.8,0.4-17.5-0.2-26.1-2.2c-30.9-7.2-57.6-22.2-79.5-45
			c-18.4-19.1-22.9-42.2-14.2-67.3c6.8-19.6,17.6-37.3,30.2-53.8c9.3-12.1,19.8-23.2,31.3-33.1c1.4-1.2,2.8-2,4.6-1.2
			c1.7,0.7,2.3,2.1,2.5,3.8c0.5,3.3,1,6.6,1.7,9.9c8,41.7,26.7,77.8,57,107.7c0.4,0.4,1,0.8,1.4,1.2c2.2-3.1,4.1-6,6.3-8.8
			c1-1.2,0.9-2,0.1-3.3c-5.9-9.3-10.3-19.2-13-29.9c-6.3-24.8-6.5-49.8-1.6-74.9c2.1-10.8,5.5-21.1,12.1-30.1
			c12.5-16.9,29.4-25.6,50.1-27.4c4.7-0.4,9.4-0.9,14.1-1.3h20.1c0.6,0.1,1.3,0.3,1.9,0.3c14.8,0.8,29.4,3,43.7,6.8
			c5.9,1.6,11.8,3.6,17.7,5.3c1.8,0.5,3.1,1.5,3.4,3.4c0.3,1.9-0.7,3.2-2.2,4.3c-0.6,0.4-1.2,0.9-1.8,1.4
			c-34.6,28-58.4,63.1-70.1,106.1c-0.3,1.2-0.6,2.5-0.9,3.8c3.6,0.3,6.9,0.5,10.2,1c1.9,0.3,2.8-0.1,3.8-1.9
			c4.4-8.5,9.9-16.2,16.5-23.1c16.8-17.5,37-29.9,59.3-38.8c9.5-3.8,19.3-7.1,29.7-7.4c22.8-0.7,41.4,8,55.4,25.9
			c18.1,23.2,30.7,49.1,38.4,77.5C1199.2,815.1,1200.4,820.4,1201.7,825.7z M1054.7,868.4c0-40-32.1-72.3-71.9-72.2
			c-39.7,0.1-71.9,32.2-71.9,71.8c0,39.7,32.2,72,72,72C1022.3,940.1,1054.7,907.9,1054.7,868.4z"/>
	</g>
</g>
<path d="M1018.9,868.2c0,20-16.2,36.2-36.1,36.2c-20,0-36.2-16.2-36.2-36.1c0-20.1,16.1-36.2,36.2-36.3
	C1002.7,832,1018.9,848.2,1018.9,868.2z"/>
<path class="st0" d="M1018.9,868.2c0,20-16.2,36.2-36.1,36.2c-20,0-36.2-16.2-36.2-36.1c0-20.1,16.1-36.2,36.2-36.3
	C1002.7,832,1018.9,848.2,1018.9,868.2z"/>
</svg>
