<?xml version="1.0" encoding="utf-8"?>
<!-- Generator: Adobe Illustrator 21.0.0, SVG Export Plug-In . SVG Version: 6.00 Build 0)  -->
<svg version="1.1" id="Layer_1" xmlns="http://www.w3.org/2000/svg" xmlns:xlink="http://www.w3.org/1999/xlink" x="0px" y="0px"
	 viewBox="0 0 2000 2000" style="enable-background:new 0 0 2000 2000;" xml:space="preserve">
<style type="text/css">
	.st0{fill:#333333;}
</style>
<g>
	<path d="M722.2,1033.1L722.2,1033.1c4.6,3.7,9.9,5.5,16.1,5.5c5.2,0,9.1-1.2,11.7-3.6c2.6-2.3,3.9-6.5,3.9-12.4v-83.5h26.5v84.3
		c0,13.3-3.2,23.2-9.5,29.9c-6.4,6.7-15.2,10-26.4,10c-6,0-11.6-0.9-16.9-2.7c-5.3-1.8-9.1-3.6-11.5-5.4l-3.7-2.9L722.2,1033.1z"/>
	<path d="M911.5,1061.3h-30.9l-27.2-43.8l-29.6,43.8h-22V939.1h26.3l-0.3,62.8v15l3.2-6.7l46.2-71.1h29.1l-37.4,57.7L911.5,1061.3z"
		/>
	<path d="M927.9,1026.1l0.2,0.1c12.6,8.7,26.1,13,40.6,13c14.2,0,21.4-4.3,21.4-12.9c0-3.2-1.8-5.9-5.5-8c-3.8-2.2-8.3-3.7-13.7-4.6
		c-5.5-0.9-11.4-2.2-17.9-3.9c-6.3-1.7-12.2-3.7-17.9-6c-5.5-2.3-10.1-6-13.7-11c-3.6-5-5.5-11.2-5.5-18.6
		c0-11.6,4.6-20.8,13.9-27.4c9.2-6.6,20.5-9.9,34-9.9c18.6,0,34.6,5.6,47.9,16.9l-13.4,18.7c-10.1-7.3-22-11-35.7-11
		c-13.5,0-20.2,4.1-20.2,12.4c0,3,1.8,5.6,5.5,7.7c3.6,2.1,8.2,3.5,13.7,4.4c5.5,0.9,11.4,2.2,17.9,3.9c6.4,1.7,12.4,3.8,17.9,6.1
		c5.5,2.4,10.1,6.2,13.7,11.3c3.7,5.3,5.5,11.6,5.5,19c0,11.9-4.3,21.1-13,27.6c-8.6,6.5-20.3,9.8-35.1,9.8
		c-10.5,0-20.6-1.7-30.2-5.1c-9.5-3.4-17.7-8-24.7-13.9L927.9,1026.1z"/>
	<path d="M1168.1,942.7v118.6h-8.5v-56.8h-74.8v56.8h-8.5V942.7h8.5v54.1h74.8v-54.1H1168.1z"/>
	<path d="M1191.6,942.7l45.1,107.9l45.1-107.9h9l-49.9,118.6h-8.2l-50.1-118.6H1191.6z"/>
	<path d="M1322.9,942.7h7.3l50.1,118.6h-9l-16.2-39.1h-57.3l-16.2,39.1h-9.2L1322.9,942.7z M1352.3,1015.2l-25.7-62.1l-25.8,62.1
		H1352.3z"/>
	<path d="M1382.5,1001c0-7.1,1.3-14.2,3.8-21.1c2.5-7,6.1-13.3,10.9-19c4.8-5.7,10.7-10.3,17.6-13.8c7-3.4,14.9-5.2,23.8-5.2
		c10.6,0,19.6,2.4,27.1,7.3c7.5,4.8,13,11,16.7,18.6l-7,4c-2.8-5.5-6.2-9.8-10.3-13c-4.1-3.2-8.4-5.5-13.1-6.9
		c-4.7-1.4-9.4-2.1-14-2.1c-7.5,0-14.1,1.5-20,4.5c-5.8,3-10.8,7-14.8,12c-4,5-7,10.6-9.1,16.7c-2.1,6.1-3.1,12.3-3.1,18.5
		c0,7,1.2,13.7,3.7,20c2.4,6.3,5.8,11.9,10.1,16.8c4.3,4.9,9.3,8.8,15,11.7c5.7,2.9,11.9,4.3,18.6,4.3c4.8,0,9.7-0.8,14.6-2.4
		c5-1.6,9.6-4.1,13.9-7.5c4.3-3.4,7.8-7.8,10.5-13.3l7.3,3.5c-2.6,5.9-6.4,10.9-11.5,15c-5.1,4.1-10.8,7.2-17,9.4
		c-6.2,2.1-12.4,3.2-18.5,3.2c-8,0-15.4-1.8-22.2-5.3c-6.8-3.5-12.7-8.2-17.6-14c-5-5.8-8.8-12.4-11.4-19.7
		C1383.8,1015.9,1382.5,1008.5,1382.5,1001z"/>
	<path d="M1542.1,1061.3V942.7h8.5v118.6H1542.1z"/>
	<path d="M1646.8,1061.3h-8.3v-48.2c0-11.1-1.6-19.2-4.8-24.4c-3.2-5.2-8.2-7.7-15.1-7.7c-4.9,0-9.7,1.2-14.4,3.5
		c-4.7,2.3-8.9,5.5-12.4,9.6c-3.5,4-6,8.6-7.6,13.7v53.6h-8.3v-86.7h7.8v20.8c2.3-4.4,5.5-8.3,9.4-11.6c3.9-3.3,8.2-5.8,13-7.7
		c4.8-1.9,9.7-2.8,14.9-2.8c4.8,0,8.8,0.9,12.1,2.6c3.3,1.7,6,4.2,8,7.4c2.1,3.2,3.5,7.2,4.4,12c0.9,4.8,1.3,10.2,1.3,16.3V1061.3z"
		/>
	<path d="M1705.6,1063c-6,0-11.6-1.2-16.9-3.6c-5.2-2.4-9.8-5.7-13.7-9.8c-3.9-4.2-6.9-9-9.1-14.4c-2.2-5.4-3.3-11.3-3.3-17.5
		c0-8.3,1.8-15.8,5.5-22.5c3.7-6.7,8.7-12,15.2-16c6.5-4,13.8-6,22-6c7.9,0,14.9,1.8,20.9,5.4c6,3.6,10.5,8.5,13.5,14.8l-8.2,2.7
		c-2.6-4.8-6.2-8.5-10.9-11.3c-4.7-2.7-9.9-4.1-15.6-4.1c-6.3,0-12.1,1.6-17.2,4.8c-5.1,3.2-9.2,7.6-12.3,13.2
		c-3.1,5.6-4.6,11.9-4.6,18.9c0,6.9,1.6,13.2,4.7,19c3.1,5.8,7.3,10.3,12.4,13.7c5.2,3.4,10.9,5.1,17.1,5.1c4,0,7.9-0.8,11.8-2.3
		c3.8-1.5,7.2-3.5,10-5.9c2.8-2.4,4.7-5.1,5.6-7.8l8.2,2.3c-1.4,4.1-4,7.8-7.5,10.9c-3.6,3.2-7.7,5.7-12.4,7.5
		C1716.2,1062.1,1711.1,1063,1705.6,1063z"/>
	<path d="M1754.5,1061.3v-14.2h7.3v14.2H1754.5z"/>
</g>
<rect x="657.3" y="792.1" width="6.4" height="415.9"/>
<path d="M517.5,863.5c-1.1,1.4-2.1,2.8-3.2,4.2c-14.3,18.6-28.6,37.3-43,55.9c-0.7,0.9-1.6,1.6-2.4,2.4c-2.2,2.6-4.8,5.1-6.6,8.1
	c-3.5,5.6-5.5,11.9-7.4,18.2c-2.1-1.4-4.2-2.6-6.3-3.6c-0.2-0.1-0.4-0.2-0.5-0.3c1-3.8,2-7.6,3-11.4c1.8-6.8,3.2-13.8,5.4-20.5
	c1.9-5.8,4.7-11.3,7.1-16.9c8.2-19.1,16.4-38.2,24.7-57.4c0.3-0.6,0.6-1.3,1-2.1C500,846.3,508.9,854.6,517.5,863.5z"/>
<path d="M570.9,928.7c-20.3,8.4-40.5,16.8-60.8,25.1c-1.6,0.7-3.2,1.4-4.9,2c-2.4,0.8-4.7,1.6-7.1,2.2c-4.7,1.1-8.8,3.2-12.6,6.1
	c-4,3.1-7.7,6.4-11.5,9.6c-1.1-2.2-2.4-4.4-3.8-6.4c-0.1-0.1-0.2-0.3-0.3-0.4c7.3-7.4,14.4-14.9,21.9-22.1c3.5-3.4,7.6-6.2,11.6-9.2
	c18.5-13.8,37-27.6,55.5-41.4c0.1-0.1,0.3-0.2,0.7-0.5c0.7,1.3,1.5,2.5,2.2,3.8c4.8,9.3,7.8,19.2,10.4,29.3
	C572.6,928.2,571.8,928.4,570.9,928.7z"/>
<path class="st0" d="M479.4,844.1c-2.4,5.9-4.8,11.6-7.1,17.3c-7.3,17.6-14.6,35.2-21.9,52.8c-0.4,1-1,1.9-1.6,2.7
	c-3.4,4.5-4.8,9.8-5.5,15.2c-0.6,4.6-0.8,9.3-1.2,13.9c-2.3-0.8-4.7-1.4-7.2-1.9c-0.2,0-0.4-0.1-0.6-0.1c0-2.3,0-4.5,0-6.7
	c-0.1-8.5-0.4-17-0.1-25.5c0.2-5.2,1.3-10.4,2-15.6c2.6-17.8,5.1-35.5,7.7-53.3c0.7-4.6,1.4-9.3,2.1-14.1
	C458.1,831.9,468.8,837.7,479.4,844.1z"/>
<path class="st0" d="M413.5,944.3c-2.4,0.5-4.8,1.1-7.2,2c-0.2,0.1-0.3,0.1-0.5,0.2c-4.2-7.2-8.2-14.4-12.7-21.4
	c-4.9-7.9-7.9-16.6-11.3-25.1c-7.6-19-15.2-38-22.7-57c-0.3-0.7-0.5-1.4-0.9-2.5c4.2-0.8,8.2-1.9,12.3-2.2c7.5-0.6,15-0.8,22.5-1.1
	c1.3-0.1,1.9,0.3,2.1,1.8c3.1,24.4,6.4,48.9,9.5,73.3c0.3,2.3-0.4,4.8-0.1,7.1c0.7,4.2,1.6,8.4,3,12.3
	C409.4,936,411.5,940.1,413.5,944.3z"/>
<path class="st0" d="M594.2,1020c-1.1,3.3-1.9,6.6-3.4,9.7c-3.6,7.5-7.5,14.8-11.2,22.2c-0.5,1.1-1.1,1.2-2.2,0.7
	c-23.1-9.6-46.2-19.2-69.2-28.8c-0.4-0.1-0.7-0.2-1-0.5c-5.4-4.5-11.9-5.9-18.6-6.7c-3.8-0.5-7.7-0.6-11.6-0.8
	c0.8-2.3,1.4-4.7,1.9-7.1c0-0.2,0.1-0.4,0.1-0.6c10.5-0.1,21-0.4,31.5-0.2c5.3,0.1,10.7,1.2,16,2c16,2.3,31.9,4.6,47.9,7
	c6.3,0.9,12.6,1.8,18.9,2.7C593.4,1019.7,593.6,1019.8,594.2,1020z"/>
<path d="M425.5,918.2c-1.2,6.8,0,13.5,1.3,20.1c0.3,1.6,0.6,3.3,1,4.9c-1.1-0.1-2.2-0.1-3.2-0.1c-1.2,0-2.5,0-4,0.1
	c-0.2,0-0.4,0-0.6,0.1c-1-3.6-2-7.1-2.9-10.6c-1.8-6.4-3.8-12.8-5.3-19.4c-1.2-5.4-1.7-11-2.4-16.5c-2.1-17.7-4.2-35.4-6.3-53.1
	c-0.6-4.8-1.1-9.7-1.7-14.9c4,0.3,7.9,0.2,11.6,0.9c7.7,1.4,15.3,3.2,22.9,4.8c1.4,0.3,1.8,0.8,1.6,2.3c-3.3,24.5-6.5,49-9.8,73.4
	C427.3,913,426,915.5,425.5,918.2z"/>
<path class="st0" d="M549.2,892.1c-0.6,0.5-1.2,1-1.8,1.4c-16.7,12.8-33.5,25.7-50.2,38.5c-2.4,1.8-4.7,3.7-7.1,5.4
	c-1.4,1-3.1,1.7-4.4,2.7c-3,2.2-6.5,4.1-8.8,6.9c-3.9,4.7-7.4,9.8-10.9,14.8c-1.6-1.9-3.4-3.6-5.3-5.2c-0.2-0.1-0.3-0.3-0.5-0.4
	c1.9-3.3,3.7-6.5,5.6-9.8c2.4-4.2,4.9-8.4,7.2-12.7c4.2-8.3,10.5-15,16.2-22.2c12.4-15.9,25-31.8,37.5-47.6c0.4-0.5,0.8-0.9,1.3-1.6
	C536.8,871,543.3,881.3,549.2,892.1z"/>
<path d="M587.8,1011.4c-2.4-0.3-4.7-0.6-7.1-0.9c-18.5-2.4-36.9-4.9-55.4-7.4c-4.3-0.6-8.6-1.1-12.8-1.7c-0.6-0.1-1.3-0.1-1.8-0.4
	c-7.1-3.2-14.4-2.5-21.8-1.3c-3.1,0.5-6.2,1.1-9.3,1.9c0.1-1.1,0.1-2.3,0.1-3.3c0-1.3-0.1-2.6-0.2-4c0-0.2,0-0.4-0.1-0.6
	c1.2-0.3,2.4-0.6,3.6-1c8.9-2.5,17.6-5.2,26.6-7.3c5.5-1.3,11.2-1.7,16.9-2.4c18.6-2.2,37.1-4.4,55.7-6.6c3.7-0.4,7.5-0.9,11.5-1.3
	C594.1,987.6,591.2,999.4,587.8,1011.4z"/>
<path class="st0" d="M585.7,968.7c-3.2,0.4-6.3,0.9-9.4,1.3c-17.9,2.3-35.7,4.7-53.6,7c-4.1,0.5-8.2,1.2-12.3,1.6
	c-2.3,0.2-4.6-0.2-6.9-0.1c-5,0.2-9.6,1.7-14.1,3.7c-3.6,1.6-7.2,3.4-10.8,5.2c-0.5-2.4-1.1-4.8-1.9-7c-0.1-0.2-0.1-0.4-0.2-0.6
	c1.4-0.8,2.7-1.6,4-2.4c7.1-4.2,14.1-8.7,21.4-12.5c6.2-3.2,12.9-5.8,19.4-8.4c19.6-7.9,39.2-15.7,58.8-23.5c0.6-0.2,1.2-0.4,2-0.7
	C585.4,944.2,585.9,956.3,585.7,968.7z"/>
<path class="st0" d="M388,957c-1.8,1.6-3.5,3.4-5.2,5.2c-0.1,0.2-0.3,0.3-0.4,0.5c-4.6-2.6-9.1-5.2-13.6-7.7
	c-4.8-2.7-9.7-5.3-14.3-8.2c-3-1.9-5.7-4.2-8.5-6.4c-18.6-14.6-37.1-29.3-55.7-43.9c-0.6-0.5-1.1-0.9-1.8-1.5
	c8.8-8.8,19-15.3,29.9-21.2c0.5,0.7,1,1.2,1.4,1.8c14.8,19.3,29.5,38.5,44.3,57.8c0.9,1.1,1.6,2.4,2.2,3.7c2.2,4.9,5.8,8.6,9.9,11.7
	C380,951.6,384,954.3,388,957z"/>
<path d="M399.8,949c-2,1-4,2.2-5.9,3.5c-0.2,0.2-0.5,0.3-0.7,0.5c-0.2-0.1-0.3-0.3-0.5-0.4c-6.4-6.2-12.6-12.5-19-18.6
	c-6.3-5.9-10.9-13.2-16-20c-12.2-16.2-24.3-32.5-36.4-48.7c-0.4-0.6-0.8-1.2-1.5-2.2c5.1-2.3,10-4.7,15.1-6.6
	c5.9-2.1,11.9-3.7,17.9-5.5c1.2-0.4,1.7-0.1,2.2,1.1c9.5,23.1,19.1,46.2,28.6,69.3c0.5,1.3,0.6,2.8,0.9,4.2
	c1.1,4.5,3.2,8.6,6.1,12.2C393.4,941.5,396.6,945.2,399.8,949z"/>
<path class="st0" d="M414.9,1084.9c-0.2,5.1-1.2,10.2-1.9,15.2c-2.6,17.7-5.1,35.5-7.7,53.3c-0.7,4.8-1.4,9.5-2.2,14.5
	c-12.1-3.2-22.8-8.9-33.4-15.3c2.3-5.6,4.6-11.1,6.9-16.6c7.4-17.8,14.7-35.6,22.1-53.3c0.4-1,1-2,1.7-2.9c3.4-4.5,4.8-9.8,5.5-15.2
	c0.6-4.6,0.8-9.3,1.2-14c2.3,0.8,4.7,1.4,7.1,1.9c0.2,0,0.4,0.1,0.6,0.1c0,2.3,0,4.6,0,6.9C414.8,1068,415.2,1076.5,414.9,1084.9z"
	/>
<path class="st0" d="M490.7,1156c-12,3.3-24.2,3.7-36.5,3.5c-0.8-6.1-1.6-11.9-2.4-17.7c-1.6-12.1-3.2-24.2-4.7-36.3
	c-0.9-7.1-2-14.2-2.8-21.4c-0.2-2.3,0.2-4.6,0.1-6.9c-0.3-5.7-2.2-10.9-4.5-15.9c-1.3-3-2.9-5.9-4.3-8.8c2.4-0.5,4.7-1.1,7.1-1.9
	c0.2-0.1,0.4-0.1,0.6-0.2c1.7,2.8,3.3,5.6,4.9,8.4c3.6,6.1,7.4,12,10.7,18.3c2.6,5.1,4.7,10.5,6.8,15.8
	c8.2,20.4,16.3,40.9,24.4,61.3C490.3,1154.7,490.4,1155.2,490.7,1156z"/>
<path d="M529.3,1133.5c-2.3,1.2-4.6,2.5-6.9,3.6c-8.4,4-17.3,6.6-26.2,8.9c-1.1,0.3-1.5-0.1-1.9-1.1c-9.6-23.2-19.1-46.3-28.7-69.5
	c-0.4-1.1-0.3-2.4-0.7-3.5c-1.1-3-2.1-6.2-3.7-9c-3.2-5.6-7.5-10.5-11.9-15.2c2.2-1.1,4.4-2.4,6.4-3.7c0.2-0.1,0.3-0.2,0.5-0.3
	c1.6,1.6,3.2,3.3,4.8,4.9c6,5.9,12.1,11.8,18,17.8c2.1,2.1,3.7,4.7,5.5,7.1c14.7,19.7,29.4,39.4,44.1,59.1
	C528.8,1132.8,528.9,1133,529.3,1133.5z"/>
<path d="M582.8,1063c-6.2,10.8-14.5,19.8-23.4,28.3c-9.2-7.1-18.4-14.1-27.5-21.1c-10.9-8.4-21.8-16.8-32.7-25.2
	c-0.5-0.4-1.1-0.7-1.4-1.2c-3.7-5.2-8.9-8.2-14.6-10.5c-4.1-1.7-8.4-3.1-12.6-4.5c1.4-2.1,2.6-4.2,3.7-6.5c0.1-0.2,0.1-0.3,0.2-0.5
	c10.3,2.7,20.7,5.3,31,8.1c3.8,1.1,7.4,2.9,11.1,4.5c21.5,9.2,42.9,18.5,64.4,27.7C581.6,1062.5,582.1,1062.7,582.8,1063z"/>
<path d="M379.2,1029.8c-7.4,7.6-14.8,15.2-22.3,22.6c-2.8,2.7-6,4.9-9.1,7.2c-12.2,9.2-24.5,18.3-36.7,27.4c-6.7,5-13.4,10-20.2,15
	c-0.4,0.3-0.9,0.6-1.7,1.2c-1.8-3.8-3.9-7.3-5.2-11.1c-2.6-7.2-4.7-14.6-7.1-21.9c-0.4-1.2,0-1.6,1.1-2.1
	c23.1-9.5,46.2-19.1,69.3-28.6c0.8-0.3,1.7-0.4,2.5-0.6c5.2-0.8,9.7-3.1,13.7-6.3c4-3.1,7.8-6.4,11.6-9.7c1,2,2.1,3.9,3.3,5.8
	C378.7,1029.1,379,1029.4,379.2,1029.8z"/>
<path class="st0" d="M372.6,1017c-3.2,1.9-6.4,3.7-9.6,5.6c-6,3.5-12,7.3-18.1,10.6c-3.7,2-7.7,3.3-11.6,4.9
	c-21.6,8.6-43.3,17.3-65,25.9c-0.4,0.2-0.8,0.3-1.6,0.6c-0.7-3.4-1.7-6.7-1.9-10c-0.7-8.3-1-16.6-1.5-24.9c-0.1-1.3,0.4-1.8,1.7-2
	c24.4-3.1,48.9-6.4,73.3-9.5c2.5-0.3,5.1,0.2,7.7,0.1c5.1-0.3,9.8-1.9,14.4-4c3.4-1.5,6.7-3.2,10-4.9c0.5,2.4,1.1,4.7,1.9,7
	C372.5,1016.6,372.5,1016.8,372.6,1017z"/>
<path d="M401,1048.3c-0.6,2.2-1.1,4.4-1.7,6.5c-2.1,7.9-3.9,15.9-6.2,23.8c-1.2,4.1-3.1,8-4.8,12c-9.2,21.4-18.4,42.7-27.5,64.1
	c-0.3,0.6-0.5,1.1-0.8,1.7c-5.2-1.6-23.2-16.4-28.3-23.3c6.2-8.1,12.5-16.2,18.7-24.4c6.2-8,12.3-16.1,18.5-24.1c3.1-4,6.2-8,9.3-12
	c0.3-0.3,0.5-0.7,0.9-1c5-3.5,8-8.6,10.3-14c1.8-4.3,3.2-8.8,4.7-13.2c2,1.4,4.2,2.6,6.4,3.7C400.6,1048.1,400.8,1048.2,401,1048.3z
	"/>
<path class="st0" d="M372.2,980.9c-0.8,2.3-1.4,4.6-1.8,7.1c0,0.2-0.1,0.4-0.1,0.6h-2.2c-9.6,0.1-19.3,0.4-28.9,0.2
	c-5.5-0.2-11.1-1.2-16.5-2c-18.6-2.7-37.2-5.4-55.9-8.1c-3.8-0.6-7.7-1.1-11.8-1.7c3.2-12.1,8.9-22.8,15.3-33.4
	c4.5,1.9,8.8,3.7,13.1,5.4c19,7.9,38.1,15.8,57.1,23.7c0.5,0.2,1,0.3,1.4,0.6c6.5,5.4,14.4,6.4,22.3,7.2
	C366.8,980.7,369.5,980.8,372.2,980.9z"/>
<path d="M378.6,967.8c-1.4,2.1-2.6,4.3-3.7,6.4c-0.1,0.2-0.2,0.4-0.3,0.6c-2.9-0.8-5.7-1.5-8.5-2.2c-7.4-1.9-14.9-3.7-22.3-5.9
	c-3.7-1.1-7.2-2.8-10.8-4.3c-21.6-9.3-43.3-18.6-64.9-27.9c-0.6-0.2-1.1-0.5-1.8-0.9c6.2-10.8,14.4-19.7,23.4-28.3
	c5,3.9,10,7.6,14.9,11.4c14.9,11.5,29.9,22.9,44.8,34.4c1.1,0.8,2,1.8,2.9,2.9c2.8,3.4,6.3,6,10.3,7.7
	C367.9,964,373.2,965.9,378.6,967.8z"/>
<path d="M447.7,1167.7c-12.5,0.1-24.3-2.7-36.2-6.1c0.5-3.7,0.9-7.2,1.4-10.7c2.2-16.7,4.4-33.5,6.6-50.2c0.7-5,1.2-9.9,2-14.9
	c0.4-2.6,1.6-5.1,2.1-7.8c1.1-6.6-0.1-13.1-1.3-19.5c-0.3-1.7-0.7-3.4-1.1-5.1c1.3,0.1,2.3,0.1,3.4,0.1c1.2,0,2.5,0,3.9-0.1
	c0.2,0,0.4,0,0.6-0.1c1.4,5.2,2.7,10.3,4.3,15.3c4.4,13.4,5.9,27.3,7.5,41.2c1.9,16.5,3.9,33,5.8,49.6
	C447.1,1162.2,447.4,1164.8,447.7,1167.7z"/>
<path class="st0" d="M388.9,1040.5c-5,8.8-9.8,17.7-15.1,26.4c-2.9,4.7-6.4,9.1-9.9,13.4c-13.8,17.6-27.7,35.2-41.6,52.7
	c-0.3,0.4-0.7,0.9-1.1,1.3c-4.8-3.2-17.1-20.4-21.3-29.8c0.5-0.4,1-0.8,1.5-1.2c15.8-12.1,31.6-24.2,47.4-36.3
	c3.1-2.4,6.1-4.8,9.2-7c1.9-1.3,4-2.4,5.8-3.6c2.3-1.6,4.7-3.1,6.8-5c5.1-4.8,8.9-10.5,12.5-16.4c1.6,1.8,3.4,3.6,5.2,5.2
	C388.6,1040.2,388.8,1040.4,388.9,1040.5z"/>
<path class="st0" d="M560.7,1101.8c-8.8,8.8-19,15.3-30,21.3c-0.3-0.4-0.5-0.7-0.7-1.1c-14.5-18.9-29-37.8-43.4-56.8
	c-1.6-2-2.9-4.3-4.1-6.6c-2.3-4.3-5.6-7.7-9.3-10.6c-3.8-2.9-7.9-5.6-11.9-8.3c1.8-1.6,3.5-3.3,5.2-5.2c0.1-0.2,0.3-0.3,0.4-0.5
	c2.5,1.4,5,2.8,7.4,4.3c6.7,3.8,13.6,7.5,20.2,11.5c2.8,1.7,5.4,3.9,8,5.9c18.7,14.7,37.4,29.5,56.1,44.3
	C559.2,1100.5,559.8,1101.1,560.7,1101.8z"/>
<path d="M369.6,1002.9c-4.9,1.3-9.7,2.7-14.5,4c-5.1,1.4-10.2,3.1-15.4,4.2c-5.6,1.1-11.2,1.7-16.9,2.4c-7.2,0.9-14.4,1.8-21.6,2.6
	c-14.1,1.6-28.2,3.3-42.3,4.9c-1.2,0.1-2.3,0.3-3.8,0.4c-0.1-12.5,2.7-24.3,6.1-36.2c3.6,0.4,7,0.8,10.5,1.3
	c8,1.1,16.1,2.2,24.2,3.2c13.7,1.8,27.4,3.6,41.1,5.5c2.6,0.4,5,1.6,7.6,2.1c6.7,1.2,13.3-0.1,19.9-1.3c1.7-0.3,3.3-0.7,5-1.1
	c-0.1,1.2-0.1,2.3-0.1,3.3c0,1.5,0.1,2.9,0.2,4C369.6,1002.5,369.6,1002.7,369.6,1002.9z"/>
<g>
	<path d="M473.5,994.8L473.5,994.8c-0.1-1.8-0.4-3.6-0.7-5.4c-0.5-2.5-1.1-4.9-1.9-7.1c-0.6-1.6-1.2-3.2-1.9-4.8
		c-1.1-2.3-2.4-4.6-3.8-6.7c-0.9-1.4-2-2.7-3.1-4c-1.7-2-3.5-3.8-5.4-5.5c-1.3-1.2-2.8-2.3-4.2-3.3c-2.1-1.5-4.3-2.7-6.5-3.8
		c-1.6-0.8-3.3-1.5-4.9-2.1c-2.3-0.8-4.8-1.5-7.3-2c-1.6-0.3-3.3-0.5-4.9-0.7c-1.5-0.1-2.9-0.2-4.3-0.2c-1.1,0-2.2,0-3.6,0.1
		c-1.8,0.1-3.6,0.4-5.3,0.7c-2.5,0.5-4.9,1.1-7.3,1.9c-1.8,0.6-3.6,1.4-5.3,2.2c-2,1-4,2.1-5.8,3.4c-1.4,1-2.8,2-4.2,3.1
		c-2,1.6-3.9,3.5-5.6,5.5c-1.1,1.3-2.2,2.6-3.1,4c-1.5,2.2-2.8,4.4-3.9,6.7c-0.7,1.5-1.4,3-1.9,4.5c-0.9,2.4-1.6,5-2.1,7.6
		c-0.3,1.7-0.6,3.5-0.7,5.3c-0.1,1.5-0.2,2.8-0.2,3.9c0,1.3,0.1,2.5,0.1,3.5c0.1,1.8,0.4,3.6,0.7,5.3c0.4,2.4,1.1,4.8,1.9,7.2
		c0.5,1.6,1.2,3.1,1.9,4.7c1,2.1,2.2,4.2,3.5,6.2c1,1.6,2.2,3.1,3.5,4.6c1.7,2,3.5,3.8,5.4,5.5c1.2,1.1,2.6,2.1,4,3.1
		c2.1,1.5,4.3,2.8,6.7,3.9c1.6,0.8,3.2,1.5,4.9,2.1c2.4,0.8,4.8,1.5,7.3,2c1.7,0.3,3.5,0.6,5.3,0.7c1.6,0.1,2.8,0.2,4,0.2
		c1,0,2.2,0,3.5-0.1c1.8-0.1,3.6-0.4,5.4-0.7c2.4-0.4,4.8-1.1,7.2-1.9c1.9-0.6,3.5-1.3,5.1-2.1c2.2-1.1,4.4-2.3,6.4-3.7
		c1.4-0.9,2.7-2,4.2-3.2c1.9-1.6,3.6-3.3,5.3-5.2c1.1-1.3,2.2-2.7,3.2-4.1c1.5-2.1,2.8-4.4,3.9-6.7c0.7-1.5,1.4-3.1,1.9-4.6
		c0.9-2.4,1.5-4.9,2-7.4c0.3-1.6,0.5-3.3,0.7-5c0.1-1.5,0.2-2.9,0.2-4.3C473.6,997.2,473.6,996.1,473.5,994.8z M424.7,1014.2h-0.2
		c-4.1,0-8.1-1.6-11.1-4.6c-3.1-3-4.8-7.1-4.7-11.3c0-8.6,7.1-15.7,15.7-15.8h0.1c8.7,0,15.8,7,15.9,15.7
		C440.5,1006.9,433.4,1014.1,424.7,1014.2z"/>
</g>
</svg>
